<?xml version="1.0" encoding="UTF-8" standalone="no"?><!-- Generator: Gravit.io --><svg xmlns="http://www.w3.org/2000/svg" xmlns:xlink="http://www.w3.org/1999/xlink" style="isolation:isolate" viewBox="0 0 800 600" width="800pt" height="600pt"><defs><clipPath id="_clipPath_tsuahF4v82CHY26B4B17hFzbjPN5hZ9Y"><rect width="800" height="600"/></clipPath></defs><g clip-path="url(#_clipPath_tsuahF4v82CHY26B4B17hFzbjPN5hZ9Y)"><g style="mix-blend-mode:multiply;"><mask id="_mask_0wtgxUqCeVmOWet1jVliQvT9PUHwGQNv"><path d=" M 539.128 579.082 L 400 579.082 L 260.872 579.082 C 248.73 579.082 233.943 570.545 227.872 560.029 L 158.308 439.541 L 88.744 319.053 C 82.673 308.537 82.673 291.463 88.744 280.947 L 158.308 160.459 L 227.872 39.971 C 233.943 29.455 248.73 20.918 260.872 20.918 L 400 20.918 L 539.128 20.918 C 551.27 20.918 566.057 29.455 572.128 39.971 L 641.692 160.459 L 711.256 280.947 C 717.327 291.463 717.327 308.537 711.256 319.053 L 641.692 439.541 L 572.128 560.029 C 566.057 570.545 551.27 579.082 539.128 579.082 Z " fill="white" stroke="none"/></mask><path d=" M 539.128 579.082 L 400 579.082 L 260.872 579.082 C 248.73 579.082 233.943 570.545 227.872 560.029 L 158.308 439.541 L 88.744 319.053 C 82.673 308.537 82.673 291.463 88.744 280.947 L 158.308 160.459 L 227.872 39.971 C 233.943 29.455 248.73 20.918 260.872 20.918 L 400 20.918 L 539.128 20.918 C 551.27 20.918 566.057 29.455 572.128 39.971 L 641.692 160.459 L 711.256 280.947 C 717.327 291.463 717.327 308.537 711.256 319.053 L 641.692 439.541 L 572.128 560.029 C 566.057 570.545 551.27 579.082 539.128 579.082 Z " fill="rgb(235,235,235)"/><path d=" M 539.128 579.082 L 400 579.082 L 260.872 579.082 C 248.73 579.082 233.943 570.545 227.872 560.029 L 158.308 439.541 L 88.744 319.053 C 82.673 308.537 82.673 291.463 88.744 280.947 L 158.308 160.459 L 227.872 39.971 C 233.943 29.455 248.73 20.918 260.872 20.918 L 400 20.918 L 539.128 20.918 C 551.27 20.918 566.057 29.455 572.128 39.971 L 641.692 160.459 L 711.256 280.947 C 717.327 291.463 717.327 308.537 711.256 319.053 L 641.692 439.541 L 572.128 560.029 C 566.057 570.545 551.27 579.082 539.128 579.082 Z " fill="rgb(235,235,235)" mask="url(#_mask_0wtgxUqCeVmOWet1jVliQvT9PUHwGQNv)" vector-effect="non-scaling-stroke" stroke-width="8" stroke="rgb(0,0,0)" stroke-linejoin="miter" stroke-linecap="square" stroke-miterlimit="3"/><clipPath id="_clipPath_5MKwJkQ5L2MYYvmAygTXZMDX1mFawpeQ"><path d=" M 539.128 579.082 L 400 579.082 L 260.872 579.082 C 248.73 579.082 233.943 570.545 227.872 560.029 L 158.308 439.541 L 88.744 319.053 C 82.673 308.537 82.673 291.463 88.744 280.947 L 158.308 160.459 L 227.872 39.971 C 233.943 29.455 248.73 20.918 260.872 20.918 L 400 20.918 L 539.128 20.918 C 551.27 20.918 566.057 29.455 572.128 39.971 L 641.692 160.459 L 711.256 280.947 C 717.327 291.463 717.327 308.537 711.256 319.053 L 641.692 439.541 L 572.128 560.029 C 566.057 570.545 551.27 579.082 539.128 579.082 Z " fill="rgb(235,235,235)"/><path d=" M 539.128 579.082 L 400 579.082 L 260.872 579.082 C 248.73 579.082 233.943 570.545 227.872 560.029 L 158.308 439.541 L 88.744 319.053 C 82.673 308.537 82.673 291.463 88.744 280.947 L 158.308 160.459 L 227.872 39.971 C 233.943 29.455 248.73 20.918 260.872 20.918 L 400 20.918 L 539.128 20.918 C 551.27 20.918 566.057 29.455 572.128 39.971 L 641.692 160.459 L 711.256 280.947 C 717.327 291.463 717.327 308.537 711.256 319.053 L 641.692 439.541 L 572.128 560.029 C 566.057 570.545 551.27 579.082 539.128 579.082 Z " fill="rgb(235,235,235)" mask="url(#_mask_0wtgxUqCeVmOWet1jVliQvT9PUHwGQNv)" vector-effect="non-scaling-stroke" stroke-width="8" stroke="rgb(0,0,0)" stroke-linejoin="miter" stroke-linecap="square" stroke-miterlimit="3"/></clipPath><g clip-path="url(#_clipPath_5MKwJkQ5L2MYYvmAygTXZMDX1mFawpeQ)"><circle vector-effect="non-scaling-stroke" cx="209.73452792472835" cy="375" r="108.24536758839896" fill="rgb(255,153,0)"/><defs><filter id="6z1jIkQlDZWfD9DibMV06ytUn5f6tdE7" x="-200%" y="-200%" width="400%" height="400%" filterUnits="objectBoundingBox" color-interpolation-filters="sRGB"><feGaussianBlur xmlns="http://www.w3.org/2000/svg" in="SourceGraphic" stdDeviation="2.146804531419514"/><feOffset xmlns="http://www.w3.org/2000/svg" dx="0" dy="1" result="pf_100_offsetBlur"/><feFlood xmlns="http://www.w3.org/2000/svg" flood-color="#000000" flood-opacity="0.1"/><feComposite xmlns="http://www.w3.org/2000/svg" in2="pf_100_offsetBlur" operator="in" result="pf_100_dropShadow"/><feBlend xmlns="http://www.w3.org/2000/svg" in="SourceGraphic" in2="pf_100_dropShadow" mode="normal"/></filter></defs><g filter="url(#6z1jIkQlDZWfD9DibMV06ytUn5f6tdE7)"><circle vector-effect="non-scaling-stroke" cx="295.4907351767979" cy="491.754632411601" r="108.24536758839896" fill="rgb(152,223,130)"/></g><defs><filter id="WOllr7qNd8TghEda5uTld1ZEOuauqPRg" x="-200%" y="-200%" width="400%" height="400%" filterUnits="objectBoundingBox" color-interpolation-filters="sRGB"><feGaussianBlur xmlns="http://www.w3.org/2000/svg" in="SourceGraphic" stdDeviation="2.146804531419514"/><feOffset xmlns="http://www.w3.org/2000/svg" dx="0" dy="1" result="pf_100_offsetBlur"/><feFlood xmlns="http://www.w3.org/2000/svg" flood-color="#000000" flood-opacity="0.1"/><feComposite xmlns="http://www.w3.org/2000/svg" in2="pf_100_offsetBlur" operator="in" result="pf_100_dropShadow"/><feBlend xmlns="http://www.w3.org/2000/svg" in="SourceGraphic" in2="pf_100_dropShadow" mode="normal"/></filter></defs><g filter="url(#WOllr7qNd8TghEda5uTld1ZEOuauqPRg)"><circle vector-effect="non-scaling-stroke" cx="389.5092648232021" cy="503.75463241160105" r="108.24536758839895" fill="rgb(74,206,114)"/></g><defs><filter id="uq582oBMoDZUWuXokYwnkzubGSyq13rx" x="-200%" y="-200%" width="400%" height="400%" filterUnits="objectBoundingBox" color-interpolation-filters="sRGB"><feGaussianBlur xmlns="http://www.w3.org/2000/svg" in="SourceGraphic" stdDeviation="2.146804531419514"/><feOffset xmlns="http://www.w3.org/2000/svg" dx="0" dy="1" result="pf_100_offsetBlur"/><feFlood xmlns="http://www.w3.org/2000/svg" flood-color="#000000" flood-opacity="0.1"/><feComposite xmlns="http://www.w3.org/2000/svg" in2="pf_100_offsetBlur" operator="in" result="pf_100_dropShadow"/><feBlend xmlns="http://www.w3.org/2000/svg" in="SourceGraphic" in2="pf_100_dropShadow" mode="normal"/></filter></defs><g filter="url(#uq582oBMoDZUWuXokYwnkzubGSyq13rx)"><circle vector-effect="non-scaling-stroke" cx="481.2453675883989" cy="503.7546324116011" r="108.245367588399" fill="rgb(41,193,135)"/></g><defs><filter id="yd1aJRFEdxdBimaEwWVRMJPWbcix8hoR" x="-200%" y="-200%" width="400%" height="400%" filterUnits="objectBoundingBox" color-interpolation-filters="sRGB"><feGaussianBlur xmlns="http://www.w3.org/2000/svg" in="SourceGraphic" stdDeviation="2.146804531419514"/><feOffset xmlns="http://www.w3.org/2000/svg" dx="0" dy="1" result="pf_100_offsetBlur"/><feFlood xmlns="http://www.w3.org/2000/svg" flood-color="#000000" flood-opacity="0.1"/><feComposite xmlns="http://www.w3.org/2000/svg" in2="pf_100_offsetBlur" operator="in" result="pf_100_dropShadow"/><feBlend xmlns="http://www.w3.org/2000/svg" in="SourceGraphic" in2="pf_100_dropShadow" mode="normal"/></filter></defs><g filter="url(#yd1aJRFEdxdBimaEwWVRMJPWbcix8hoR)"><circle vector-effect="non-scaling-stroke" cx="560.7546324116009" cy="460.754632411601" r="108.24536758839895" fill="rgb(54,168,130)"/></g><defs><filter id="53NvNCSMfeAsE1df5TglVj7vM3IdtEDz" x="-200%" y="-200%" width="400%" height="400%" filterUnits="objectBoundingBox" color-interpolation-filters="sRGB"><feGaussianBlur xmlns="http://www.w3.org/2000/svg" in="SourceGraphic" stdDeviation="2.146804531419514"/><feOffset xmlns="http://www.w3.org/2000/svg" dx="0" dy="1" result="pf_100_offsetBlur"/><feFlood xmlns="http://www.w3.org/2000/svg" flood-color="#000000" flood-opacity="0.1"/><feComposite xmlns="http://www.w3.org/2000/svg" in2="pf_100_offsetBlur" operator="in" result="pf_100_dropShadow"/><feBlend xmlns="http://www.w3.org/2000/svg" in="SourceGraphic" in2="pf_100_dropShadow" mode="normal"/></filter></defs><g filter="url(#53NvNCSMfeAsE1df5TglVj7vM3IdtEDz)"><circle vector-effect="non-scaling-stroke" cx="589.4907351767979" cy="362.490735176798" r="108.24536758839895" fill="rgb(32,83,166)"/></g><defs><filter id="oG4EBaSUpGa6BCYISK55GcIwxRAcjNah" x="-200%" y="-200%" width="400%" height="400%" filterUnits="objectBoundingBox" color-interpolation-filters="sRGB"><feGaussianBlur xmlns="http://www.w3.org/2000/svg" in="SourceGraphic" stdDeviation="2.146804531419514"/><feOffset xmlns="http://www.w3.org/2000/svg" dx="0" dy="1" result="pf_100_offsetBlur"/><feFlood xmlns="http://www.w3.org/2000/svg" flood-color="#000000" flood-opacity="0.1"/><feComposite xmlns="http://www.w3.org/2000/svg" in2="pf_100_offsetBlur" operator="in" result="pf_100_dropShadow"/><feBlend xmlns="http://www.w3.org/2000/svg" in="SourceGraphic" in2="pf_100_dropShadow" mode="normal"/></filter></defs><g filter="url(#oG4EBaSUpGa6BCYISK55GcIwxRAcjNah)"><circle vector-effect="non-scaling-stroke" cx="606" cy="287.26389723480304" r="108.24536758839895" fill="rgb(84,84,251)"/></g><defs><filter id="ZMdUCbdcGpGj7YMOL36XbZmIJ99w9m5t" x="-200%" y="-200%" width="400%" height="400%" filterUnits="objectBoundingBox" color-interpolation-filters="sRGB"><feGaussianBlur xmlns="http://www.w3.org/2000/svg" in="SourceGraphic" stdDeviation="2.146804531419514"/><feOffset xmlns="http://www.w3.org/2000/svg" dx="0" dy="1" result="pf_100_offsetBlur"/><feFlood xmlns="http://www.w3.org/2000/svg" flood-color="#000000" flood-opacity="0.1"/><feComposite xmlns="http://www.w3.org/2000/svg" in2="pf_100_offsetBlur" operator="in" result="pf_100_dropShadow"/><feBlend xmlns="http://www.w3.org/2000/svg" in="SourceGraphic" in2="pf_100_dropShadow" mode="normal"/></filter></defs><g filter="url(#ZMdUCbdcGpGj7YMOL36XbZmIJ99w9m5t)"><circle vector-effect="non-scaling-stroke" cx="589.4907351767979" cy="203.754632411601" r="108.24536758839895" fill="rgb(75,75,219)"/></g><defs><filter id="SDjW5ORptrdSdBkJMa9uXXlL3yHdGNHU" x="-200%" y="-200%" width="400%" height="400%" filterUnits="objectBoundingBox" color-interpolation-filters="sRGB"><feGaussianBlur xmlns="http://www.w3.org/2000/svg" in="SourceGraphic" stdDeviation="2.146804531419514"/><feOffset xmlns="http://www.w3.org/2000/svg" dx="0" dy="1" result="pf_100_offsetBlur"/><feFlood xmlns="http://www.w3.org/2000/svg" flood-color="#000000" flood-opacity="0.65"/><feComposite xmlns="http://www.w3.org/2000/svg" in2="pf_100_offsetBlur" operator="in" result="pf_100_dropShadow"/><feBlend xmlns="http://www.w3.org/2000/svg" in="SourceGraphic" in2="pf_100_dropShadow" mode="normal"/></filter></defs><g filter="url(#SDjW5ORptrdSdBkJMa9uXXlL3yHdGNHU)"><circle vector-effect="non-scaling-stroke" cx="527.245367588399" cy="129.26389723480298" r="108.24536758839895" fill="rgb(153,0,255)"/></g><defs><filter id="lTCRXEo4mnIn7fMdm7lQrYsEY2Ylv8vZ" x="-200%" y="-200%" width="400%" height="400%" filterUnits="objectBoundingBox" color-interpolation-filters="sRGB"><feGaussianBlur xmlns="http://www.w3.org/2000/svg" in="SourceGraphic" stdDeviation="2.146804531419514"/><feOffset xmlns="http://www.w3.org/2000/svg" dx="0" dy="1" result="pf_100_offsetBlur"/><feFlood xmlns="http://www.w3.org/2000/svg" flood-color="#000000" flood-opacity="0.1"/><feComposite xmlns="http://www.w3.org/2000/svg" in2="pf_100_offsetBlur" operator="in" result="pf_100_dropShadow"/><feBlend xmlns="http://www.w3.org/2000/svg" in="SourceGraphic" in2="pf_100_dropShadow" mode="normal"/></filter></defs><g filter="url(#lTCRXEo4mnIn7fMdm7lQrYsEY2Ylv8vZ)"><circle vector-effect="non-scaling-stroke" cx="464.2453675883989" cy="77.75463241160101" r="108.245367588399" fill="rgb(166,102,208)"/></g><defs><filter id="INpuDtQ2aMGHcCzqFRnffPVvhFMSyjsl" x="-200%" y="-200%" width="400%" height="400%" filterUnits="objectBoundingBox" color-interpolation-filters="sRGB"><feGaussianBlur xmlns="http://www.w3.org/2000/svg" in="SourceGraphic" stdDeviation="2.146804531419514"/><feOffset xmlns="http://www.w3.org/2000/svg" dx="0" dy="1" result="pf_100_offsetBlur"/><feFlood xmlns="http://www.w3.org/2000/svg" flood-color="#000000" flood-opacity="0.1"/><feComposite xmlns="http://www.w3.org/2000/svg" in2="pf_100_offsetBlur" operator="in" result="pf_100_dropShadow"/><feBlend xmlns="http://www.w3.org/2000/svg" in="SourceGraphic" in2="pf_100_dropShadow" mode="normal"/></filter></defs><g filter="url(#INpuDtQ2aMGHcCzqFRnffPVvhFMSyjsl)"><circle vector-effect="non-scaling-stroke" cx="365.24536758839895" cy="83.509264823202" r="108.24536758839895" fill="rgb(206,75,75)"/></g><defs><filter id="O1tJbdzGUf9N5zcc0fOBH9Xciw1zRM1O" x="-200%" y="-200%" width="400%" height="400%" filterUnits="objectBoundingBox" color-interpolation-filters="sRGB"><feGaussianBlur xmlns="http://www.w3.org/2000/svg" in="SourceGraphic" stdDeviation="2.146804531419514"/><feOffset xmlns="http://www.w3.org/2000/svg" dx="0" dy="1" result="pf_100_offsetBlur"/><feFlood xmlns="http://www.w3.org/2000/svg" flood-color="#000000" flood-opacity="0.1"/><feComposite xmlns="http://www.w3.org/2000/svg" in2="pf_100_offsetBlur" operator="in" result="pf_100_dropShadow"/><feBlend xmlns="http://www.w3.org/2000/svg" in="SourceGraphic" in2="pf_100_dropShadow" mode="normal"/></filter></defs><g filter="url(#O1tJbdzGUf9N5zcc0fOBH9Xciw1zRM1O)"><circle vector-effect="non-scaling-stroke" cx="273.24536758839895" cy="125.263897234803" r="108.24536758839896" fill="rgb(232,81,47)"/></g><defs><filter id="4zu19IAIMtOSEi2DXVYGk77pAwhqNDn5" x="-200%" y="-200%" width="400%" height="400%" filterUnits="objectBoundingBox" color-interpolation-filters="sRGB"><feGaussianBlur xmlns="http://www.w3.org/2000/svg" in="SourceGraphic" stdDeviation="2.146804531419514"/><feOffset xmlns="http://www.w3.org/2000/svg" dx="0" dy="1" result="pf_100_offsetBlur"/><feFlood xmlns="http://www.w3.org/2000/svg" flood-color="#000000" flood-opacity="0.1"/><feComposite xmlns="http://www.w3.org/2000/svg" in2="pf_100_offsetBlur" operator="in" result="pf_100_dropShadow"/><feBlend xmlns="http://www.w3.org/2000/svg" in="SourceGraphic" in2="pf_100_dropShadow" mode="normal"/></filter></defs><g filter="url(#4zu19IAIMtOSEi2DXVYGk77pAwhqNDn5)"><circle vector-effect="non-scaling-stroke" cx="241.24536758839895" cy="191.754632411601" r="108.24536758839896" fill="rgb(227,97,67)"/></g><defs><filter id="r9GICCaSGRfLmQAKSugvWHf2BT4o4H8i" x="-200%" y="-200%" width="400%" height="400%" filterUnits="objectBoundingBox" color-interpolation-filters="sRGB"><feGaussianBlur xmlns="http://www.w3.org/2000/svg" in="SourceGraphic" stdDeviation="2.146804531419514"/><feOffset xmlns="http://www.w3.org/2000/svg" dx="0" dy="1" result="pf_100_offsetBlur"/><feFlood xmlns="http://www.w3.org/2000/svg" flood-color="#000000" flood-opacity="0.1"/><feComposite xmlns="http://www.w3.org/2000/svg" in2="pf_100_offsetBlur" operator="in" result="pf_100_dropShadow"/><feBlend xmlns="http://www.w3.org/2000/svg" in="SourceGraphic" in2="pf_100_dropShadow" mode="normal"/></filter></defs><g filter="url(#r9GICCaSGRfLmQAKSugvWHf2BT4o4H8i)"><circle vector-effect="non-scaling-stroke" cx="197.75463241160102" cy="257.0122872913374" r="108.24536758839898" fill="rgb(249,119,90)"/></g><defs><filter id="UxEOD1bGLFkZMtlR78zbt85kAbqu4kKm" x="-200%" y="-200%" width="400%" height="400%" filterUnits="objectBoundingBox" color-interpolation-filters="sRGB"><feGaussianBlur xmlns="http://www.w3.org/2000/svg" in="SourceGraphic" stdDeviation="2.146804531419514"/><feOffset xmlns="http://www.w3.org/2000/svg" dx="0" dy="1" result="pf_100_offsetBlur"/><feFlood xmlns="http://www.w3.org/2000/svg" flood-color="#000000" flood-opacity="0.1"/><feComposite xmlns="http://www.w3.org/2000/svg" in2="pf_100_offsetBlur" operator="in" result="pf_100_dropShadow"/><feBlend xmlns="http://www.w3.org/2000/svg" in="SourceGraphic" in2="pf_100_dropShadow" mode="normal"/></filter></defs><g filter="url(#UxEOD1bGLFkZMtlR78zbt85kAbqu4kKm)"><path d=" M 367 321 C 492.72 344.44 463.589 334.754 390 366 C 534.762 416.475 272.582 261.202 116 433 C -641.855 309.143 -609.391 220.883 86 297 C 120.514 197.771 215.374 224.792 306 313 C 365.742 313 405 395.742 405 336 C 405 327.399 368.901 329.023 367 321 Z " fill="rgb(255,184,77)"/></g></g><path d=" M 539.128 579.082 L 400 579.082 L 260.872 579.082 C 248.73 579.082 233.943 570.545 227.872 560.029 L 158.308 439.541 L 88.744 319.053 C 82.673 308.537 82.673 291.463 88.744 280.947 L 158.308 160.459 L 227.872 39.971 C 233.943 29.455 248.73 20.918 260.872 20.918 L 400 20.918 L 539.128 20.918 C 551.27 20.918 566.057 29.455 572.128 39.971 L 641.692 160.459 L 711.256 280.947 C 717.327 291.463 717.327 308.537 711.256 319.053 L 641.692 439.541 L 572.128 560.029 C 566.057 570.545 551.27 579.082 539.128 579.082 Z " fill="transparent" mask="url(#_mask_0wtgxUqCeVmOWet1jVliQvT9PUHwGQNv)" vector-effect="non-scaling-stroke" stroke-width="8" stroke="rgb(0,0,0)" stroke-linejoin="miter" stroke-linecap="square" stroke-miterlimit="3"/></g><defs><filter id="MXZAnvFi5IwFIHB0zxtLkFm77nlnz4Ic" x="-200%" y="-200%" width="400%" height="400%" filterUnits="objectBoundingBox" color-interpolation-filters="sRGB"><feGaussianBlur xmlns="http://www.w3.org/2000/svg" in="SourceGraphic" stdDeviation="4.293609062839028"/><feOffset xmlns="http://www.w3.org/2000/svg" dx="0" dy="0" result="pf_100_offsetBlur"/><feFlood xmlns="http://www.w3.org/2000/svg" flood-color="#000000" flood-opacity="0.7"/><feComposite xmlns="http://www.w3.org/2000/svg" in2="pf_100_offsetBlur" operator="in" result="pf_100_dropShadow"/><feBlend xmlns="http://www.w3.org/2000/svg" in="SourceGraphic" in2="pf_100_dropShadow" mode="normal"/></filter></defs><g filter="url(#MXZAnvFi5IwFIHB0zxtLkFm77nlnz4Ic)"><path d=" M 519.673 464.716 L 400 401.8 L 280.327 464.716 L 303.182 331.458 L 206.365 237.084 L 340.163 217.642 L 400 96.4 L 459.837 217.642 L 593.635 237.084 L 496.818 331.458 L 519.673 464.716 Z " fill="rgb(255,255,255)" style="mix-blend-mode:screen;"/></g></g></svg>